<svg id="Layer_1" data-name="Layer 1" xmlns="http://www.w3.org/2000/svg" xmlns:xlink="http://www.w3.org/1999/xlink" viewBox="0 0 110.8 194.53"><defs><style>.cls-1,.cls-3{fill:none;}.cls-2{clip-path:url(#clip-path);}.cls-3{stroke:#000;stroke-miterlimit:10;stroke-width:1.7px;}</style><clipPath id="clip-path" transform="translate(-84.45 -86.36)"><rect class="cls-1" x="84.55" y="86.48" width="110.6" height="169.34"/></clipPath></defs><title>mark_center</title><g class="cls-2"><path class="cls-3" d="M176.81,97.24v157M102.37,97.67V280.89m87.31-98.15,4.72,1.59v71.48l-4.72-.64-25.75-1.84-10.59-.11-26.77-.11-10.83.43L90,255,85.36,257V184.61L90,182.74m73.94,70.37V87.36M153.34,253.87v-15.3H126.57v15.3m63.11-88.46,4.7-3.07V126l-4.7-3.66M153.11,268.8l-4.65-1.54H131.23l-4.65,1.54m26.54-5.89-4.65-1.54H131.23l-4.65,1.54m26.65-17.56-4.65-1.54H131.34l-4.65,1.54m26.42,5.81-4.65-1.54H131.23l-4.65,1.54m26.54-12.57,4.21-2V103.35l-9.84-6.82H132.2l-9.84,6.82V236.61l4.21,2m-.23,0h26.77m-8.29-142,19.11-9.26,25.75,20.77V277M147.48,96.54l.73,138,9.11,2.06m-35,0,9.84-2v-138m-16.46,157V87.36M90,165.42l-4.7-3.07V126l4.7-3.66M132.2,234.57l16,0m-13.34-138-19.12-9.18L90,108.13V277" transform="translate(-84.45 -86.36)"/></g></svg>